<svg xmlns="http://www.w3.org/2000/svg" version="1.1" xmlns:xlink="http://www.w3.org/1999/xlink" xmlns:svgjs="http://svgjs.com/svgjs" width="512" height="512" x="0" y="0" viewBox="0 0 24 24" style="enable-background:new 0 0 512 512" xml:space="preserve"><g><path d="m13.4 12 7.3-7.3c.4-.4.4-1 0-1.4s-1-.4-1.4 0L12 10.6 4.7 3.3c-.4-.4-1-.4-1.4 0s-.4 1 0 1.4l7.3 7.3-7.3 7.3c-.4.4-.4 1 0 1.4.2.2.4.3.7.3s.5-.1.7-.3l7.3-7.3 7.3 7.3c.2.2.5.3.7.3s.5-.1.7-.3c.4-.4.4-1 0-1.4z" fill="#ff0000" data-original="#000000"></path></g></svg>