<svg xmlns="http://www.w3.org/2000/svg" version="1.1" xmlns:xlink="http://www.w3.org/1999/xlink" width="512" height="512" x="0" y="0" viewBox="0 0 512 512" style="enable-background:new 0 0 512 512" xml:space="preserve" class=""><g><path d="m419 222.2-.3-.3-129-129.1S132.5 250 56.7 327.4c-9.4 9.6-16.6 23-20.8 36-12.4 38-22.7 76.8-34.2 115.1-3.1 10.3-2.5 19.4 5.6 27 7.6 7.2 16.2 7.6 26 4.6 36.6-11 73.4-21.4 110.1-31.9 19.3-5.5 35.5-15.7 49.7-30 72.2-72.4 225.9-226 225.9-226zM494.3 61.8l-44.1-44.1c-23.6-23.6-61.7-23.6-85.3 0l-50 50 129.4 129.4 50-50c23.6-23.5 23.6-61.7 0-85.3z" fill="#ffffff" opacity="1" data-original="#000000" class=""></path></g></svg>