<svg xmlns="http://www.w3.org/2000/svg" version="1.1" xmlns:xlink="http://www.w3.org/1999/xlink" xmlns:svgjs="http://svgjs.com/svgjs" width="512" height="512" x="0" y="0" viewBox="0 0 100 100" style="enable-background:new 0 0 512 512" xml:space="preserve"><g><path d="M50 25.66c-15.88 0-30.42 9.32-37.04 23.74-.18.4-.18.86 0 1.25C19.6 65.04 34.13 74.34 50 74.34s30.4-9.3 37.04-23.69c.18-.4.18-.86 0-1.25C80.42 34.98 65.88 25.66 50 25.66zm0 45.68c-14.47 0-27.74-8.34-34.02-21.32 6.26-13 19.54-21.37 34.02-21.37s27.75 8.36 34.02 21.37C77.74 63 64.47 71.34 50 71.34z" fill="#999999" data-original="#000000"></path><path d="M50 34.39c-8.61 0-15.61 7-15.61 15.61s7 15.61 15.61 15.61 15.61-7 15.61-15.61-7-15.61-15.61-15.61zm0 28.22c-6.95 0-12.61-5.66-12.61-12.61S43.05 37.39 50 37.39 62.61 43.05 62.61 50 56.95 62.61 50 62.61z" fill="#999999" data-original="#000000"></path></g></svg>