<svg xmlns="http://www.w3.org/2000/svg" version="1.1" xmlns:xlink="http://www.w3.org/1999/xlink" xmlns:svgjs="http://svgjs.com/svgjs" width="512" height="512" x="0" y="0" viewBox="0 0 100 100" style="enable-background:new 0 0 512 512" xml:space="preserve"><g><path d="M87.04 49.4c-3.52-7.67-9.29-13.87-16.3-18.02l9.67-9.67c.59-.59.59-1.54 0-2.12s-1.54-.59-2.12 0l-10.3 10.3c-5.5-2.72-11.63-4.23-17.99-4.23-15.88 0-30.42 9.32-37.04 23.74-.18.4-.18.86 0 1.25 3.52 7.65 9.29 13.83 16.29 17.97l-9.67 9.67a1.49 1.49 0 0 0 0 2.12c.29.29.68.44 1.06.44s.77-.15 1.06-.44L32 70.11c5.51 2.71 11.64 4.23 17.99 4.23 15.87 0 30.4-9.3 37.04-23.69.19-.39.19-.85.01-1.25zm-71.06.62c6.26-13 19.54-21.37 34.02-21.37 5.54 0 10.89 1.23 15.75 3.47l-5.83 5.83c-2.7-2.23-6.16-3.57-9.92-3.57-8.61 0-15.61 7-15.61 15.61 0 3.76 1.34 7.22 3.57 9.92l-6.51 6.51c-6.6-3.71-12.07-9.36-15.47-16.4zm24.12 7.76c-1.69-2.15-2.71-4.84-2.71-7.78 0-6.95 5.66-12.61 12.61-12.61 2.94 0 5.64 1.02 7.78 2.71zm19.8-15.56c1.69 2.15 2.71 4.84 2.71 7.78 0 6.95-5.66 12.61-12.61 12.61-2.94 0-5.64-1.02-7.78-2.71zM50 71.34c-5.54 0-10.89-1.23-15.76-3.47l5.83-5.83c2.7 2.23 6.16 3.57 9.92 3.57 8.61 0 15.61-7 15.61-15.61 0-3.76-1.34-7.22-3.57-9.92l6.51-6.51c6.6 3.73 12.07 9.4 15.47 16.45C77.74 63 64.47 71.34 50 71.34z" fill="#999999" data-original="#000000"></path></g></svg>